# xmcd
#
# Track frame offsets:
#	150
#	25369
#	45778
#	61879
#	81093
#	95051
#	111609
#	127404
#	145186
#	176923
#	190851
#	210093
#	229156
#	256646
#	288552
#	313275
#
# Disc length: 4280 seconds
#
# Revision: 1
# Processed by: cddbd v1.4b41PL2 Copyright (c) Steve Scherf et al.
# Submitted via: OrangeCD 4.0
#
DISCID=eb10b610
DTITLE=Shania Twain - Live
DYEAR=1900
DGENRE=
TTITLE0=You Win My Love
TTITLE1=Whose Bed Have Your Boots Been Under
TTITLE2=You're Still The One
TTITLE3=I Won't Leave You Lonely
TTITLE4=Come On Over
TTITLE5=Love Gets Me Every Time
TTITLE6=I'm Holding On To Love
TTITLE7=When
TTITLE8=Medley
TTITLE9=No One Needs To Know
TTITLE10=Any Man Of Mine
TTITLE11=Don't Be Stupid
TTITLE12=From This Moment On
TTITLE13=If You're Not In It For Love
TTITLE14=Rock This Country
TTITLE15=Amneris Letter
EXTD=
EXTT0=
EXTT1=
EXTT2=
EXTT3=
EXTT4=
EXTT5=
EXTT6=
EXTT7=
EXTT8=
EXTT9=
EXTT10=
EXTT11=
EXTT12=
EXTT13=
EXTT14=
EXTT15=
PLAYORDER=
